<svg width="422" height="528" viewBox="0 0 422 528" fill="none" xmlns="http://www.w3.org/2000/svg">
<path d="M72.1023 200.054L71.3486 200.261L71.0867 200.997L63.0867 223.497L62.1396 226.161L64.8763 225.452L239.14 180.291L88.1652 474.816L86.5996 477.87L89.9044 476.944L114.904 469.944L115.541 469.766L115.839 469.177L279.339 145.677L280.865 142.657L277.602 143.554L72.1023 200.054ZM243.335 178.684L244.86 175.709L241.624 176.548L66.8604 221.839L73.6514 202.739L275.135 147.343L113.459 467.234L92.4004 473.13L243.335 178.684ZM160.135 454.377L158.783 457.341L161.914 456.442L377.914 394.442L379 394.13V393V380V379.048L378.139 378.643L369.639 374.643L369.13 374.404L368.59 374.557L171.59 430.557L170.923 430.747L170.635 431.377L165.385 442.877L160.135 454.377ZM110.686 137.776C110.471 138.166 110.448 138.61 110.586 139C110.409 139.5 110.504 140.078 110.883 140.501C111.436 141.118 112.384 141.17 113.001 140.617L152.368 105.322L139.072 146.539L138.196 149.257L140.931 148.437L165.931 140.937L166.669 140.715L166.919 139.987L183.8 90.7888L233.194 122.265L233.738 122.612L234.364 122.455L258.364 116.455L261.669 115.629L258.828 113.749L161.328 49.249L159.971 48.3517L159.186 49.776L110.686 137.776ZM116.491 133.459L161.029 52.6483L254.331 114.371L234.262 119.388L183.806 87.235L182.2 86.2112L181.581 88.0132L164.331 138.285L142.804 144.743L156.928 100.961L158.632 95.6777L154.499 99.3831L116.491 133.459ZM376 391.87L164.217 452.659L168.115 444.123L173.077 433.253L368.87 377.596L376 380.952V391.87ZM189.665 387.817L188.079 390.914L191.42 389.94L394.004 330.853L419.614 413.481L28.9075 525.605L181.836 226.182L183.393 223.133L180.096 224.055L2.97852 273.609L148.044 2.1652L304.168 106.248L304.763 106.645L305.445 106.432L339.04 95.9908L189.665 387.817ZM313.573 38.9628L325.086 74.4599L300.027 81.172L289.439 45.0778L289.042 43.7248L287.668 44.0373L268.681 48.3523L290.576 2.28253L331.612 32.3759L314.602 37.0537L313.089 37.4698L313.573 38.9628Z" fill="black" stroke="white" stroke-width="3" stroke-linecap="round"/>
</svg>
